<?xml version="1.0" standalone="no"?>
<!DOCTYPE svg PUBLIC "-//W3C//DTD SVG 20010904//EN"
 "http://www.w3.org/TR/2001/REC-SVG-20010904/DTD/svg10.dtd">
<svg version="1.0" xmlns="http://www.w3.org/2000/svg"
 width="210.000000pt" height="210.000000pt" viewBox="0 0 210.000000 210.000000"
 preserveAspectRatio="xMidYMid meet">
<metadata>
Created by potrace 1.14, written by Peter Selinger 2001-2017
</metadata>
<g transform="translate(0.000000,210.000000) scale(0.100000,-0.100000)"
fill="#000000" stroke="none">
<path d="M987 1903 c-4 -3 -7 -17 -7 -31 0 -51 -29 -91 -81 -109 -53 -19 -61
-40 -13 -36 49 5 77 -30 89 -107 11 -73 26 -69 31 7 2 40 8 52 35 76 18 15 42
27 54 27 11 0 27 4 35 10 17 11 9 14 -51 24 -48 8 -68 33 -74 91 -5 52 -8 59
-18 48z"/>
<path d="M1639 1825 c-1 -3 -3 -9 -4 -15 -1 -5 -3 -15 -4 -20 0 -6 -12 -16
-26 -22 -30 -14 -32 -24 -5 -31 13 -3 22 -17 26 -36 6 -30 27 -38 30 -13 1 7
2 17 3 23 0 5 15 15 31 20 36 13 39 26 6 35 -15 3 -29 17 -35 35 -9 26 -19 37
-22 24z"/>
<path d="M1241 1759 c-59 -36 -130 -165 -134 -246 -2 -35 -8 -40 -72 -58 -101
-28 -186 -83 -282 -181 l-72 -73 -29 52 c-37 64 -79 105 -157 152 -74 44 -139
64 -232 72 l-72 5 0 -646 0 -646 804 0 c443 0 805 3 806 8 5 33 4 70 -2 87 -4
13 2 42 17 76 60 144 52 345 -20 454 -30 46 -84 93 -122 107 -19 6 -34 14 -35
18 0 3 -2 34 -4 70 -3 82 -18 136 -61 226 l-34 72 23 43 c31 59 50 131 53 207
2 52 -1 67 -17 83 -19 19 -20 19 -60 -1 -43 -22 -108 -111 -129 -176 -7 -20
-17 -33 -23 -30 -7 2 -36 13 -65 22 -40 14 -51 21 -46 33 38 90 57 210 41 257
-10 30 -40 35 -76 13z"/>
<path d="M671 1620 c-5 -16 -15 -31 -20 -31 -6 -1 -16 -2 -23 -3 -20 -2 -21
-26 -1 -26 28 0 43 -20 43 -57 0 -22 5 -33 14 -33 10 0 13 9 11 30 -5 35 16
60 51 60 21 0 36 19 17 21 -46 4 -63 18 -63 52 0 27 -17 20 -29 -13z"/>
<path d="M1715 1478 c-2 -7 -6 -36 -8 -65 -8 -85 -26 -105 -105 -118 -51 -8
-44 -26 12 -30 62 -3 92 -46 100 -139 7 -88 23 -93 30 -10 8 90 46 146 106
150 17 1 38 5 46 8 24 9 15 26 -13 26 -98 0 -140 45 -142 153 -1 35 -17 51
-26 25z"/>
</g>
</svg>
